<?xml version="1.0" encoding="UTF-8"?>
<svg id="Layer_2" data-name="Layer 2" xmlns="http://www.w3.org/2000/svg" viewBox="0 0 583.15 256.27">
  <defs>
    <style>
      .cls-1 {
        fill: #252422;
      }
    </style>
  </defs>
  <g id="Layer_1" data-name="Layer 1">
    <g>
      <path class="cls-1" d="M173.99,63.78c0,.12-.34.12-1,0-.67-.12-1.55-.03-2.64.27-1.09.3-2.13.7-3.1,1.19-.97.49-1.82,1.34-2.55,2.55-.73,1.22-1.16,2.73-1.28,4.56v102.47c.12,2.8,1.06,4.89,2.83,6.29,1.76,1.4,3.49,2.16,5.2,2.28h2.55v4.01h-37.2v-4.01c0-.12.33-.12,1,0,.67.12,1.55.03,2.64-.27,1.09-.3,2.13-.7,3.1-1.18.97-.48,1.85-1.37,2.64-2.64.79-1.28,1.19-2.76,1.19-4.47v-102.47c-.12-2.79-1.07-4.89-2.83-6.29-1.76-1.4-3.5-2.16-5.2-2.28h-2.55v-4.01h37.2v4.01Z"/>
      <path class="cls-1" d="M290.32,172.27v15.13h-85.52v-4.01c0-.12.33-.12,1,0,.67.12,1.55,0,2.64-.36s2.13-.76,3.1-1.18c.97-.42,1.82-1.28,2.55-2.55.73-1.28,1.15-2.76,1.28-4.47v-102.66c-.12-2.67-1.07-4.71-2.83-6.11-1.76-1.4-3.5-2.16-5.2-2.28h-2.55v-4.01h37.2v4.01h-1.09c-.49,0-1.31.12-2.46.36-1.16.25-2.19.61-3.1,1.09-.91.49-1.76,1.34-2.55,2.55-.79,1.22-1.25,2.68-1.37,4.38v111.23h43.4c3.16.24,5.89-.76,8.21-3.01,2.31-2.25,3.4-4.95,3.28-8.11h4.01Z"/>
      <path class="cls-1" d="M436.91,63.78c0,.12-.34.12-1,0-.67-.12-1.55-.03-2.64.27-1.09.3-2.13.7-3.1,1.19-.97.49-1.82,1.37-2.55,2.64-.73,1.28-1.16,2.77-1.28,4.47v102.47c.12,1.7.55,3.19,1.28,4.47.73,1.28,1.61,2.16,2.64,2.64,1.03.49,2.03.85,3.01,1.09.97.25,1.82.36,2.55.36h1.09v4.01h-37.2v-4.01h1.09c.48,0,1.3-.12,2.46-.36,1.15-.24,2.19-.61,3.1-1.09.91-.48,1.76-1.3,2.55-2.46.79-1.15,1.24-2.58,1.37-4.28v-53.61h-66.74v53.43c.12,2.68,1.06,4.71,2.83,6.11,1.76,1.4,3.49,2.16,5.2,2.28h2.55v4.01h-37.2v-4.01c0-.12.33-.12,1,0,.67.12,1.55.03,2.64-.27,1.09-.3,2.13-.7,3.1-1.18.97-.48,1.82-1.34,2.55-2.55.73-1.21,1.15-2.74,1.28-4.56v-102.66c-.12-2.67-1.07-4.71-2.83-6.11-1.76-1.4-3.5-2.16-5.2-2.28h-2.55v-4.01h37.2v4.01h-1.09c-.49,0-1.31.12-2.46.36-1.16.25-2.19.61-3.1,1.09-.91.49-1.76,1.34-2.55,2.55-.79,1.22-1.25,2.68-1.37,4.38v45.58h66.74v-45.77c-.24-2.67-1.22-4.68-2.92-6.02-1.7-1.34-3.4-2.07-5.1-2.19h-2.55v-4.01h37.2v4.01Z"/>
      <path class="cls-1" d="M574.39,181.49c-2.68-1.64-4.56-3.92-5.65-6.84l-43.21-114.87h-5.65l-42.48,114.87c-1.09,2.92-2.98,5.2-5.65,6.84-2.68,1.64-5.59,2.28-8.75,1.91v4.01h28.45v-4.01c-2.19,0-4.01-.18-5.47-.55-1.46-.36-2.52-.82-3.2-1.36-.66-.55-1.12-1.19-1.36-1.92-.24-.73-.34-1.34-.28-1.83.06-.48.15-.91.28-1.27l.18-.37,12.95-35.73h43.21l13.86,36.83c.12.73.09,1.41-.09,2.01-.18.61-.55,1.25-1.09,1.91-.55.67-1.61,1.22-3.19,1.64-1.58.43-3.53.64-5.83.64v4.01h41.75v-4.01c-3.16.37-6.07-.27-8.75-1.91ZM495.81,136.17l20.61-55.25,20.42,55.25h-41.03Z"/>
      <g>
        <path class="cls-1" d="M351.89,223.74v.57c-1.28.5-1.95,1.28-3.16,4.71l-6.36,18.27h-2.56l-5.42-14.53-5.05,14.53h-2.56l-7.23-19.34c-.81-2.22-1.48-3.23-2.62-3.63v-.57h8.78v.57c-.64.5-1.14,1.35-.13,4.27l3.83,11.27,3.57-10.87-.37-1.04c-.87-2.29-1.48-3.23-2.62-3.63l-.03-.57h8.81v.57c-.67.5-1.14,1.35-.17,4.27l3.83,11.27,4.04-12.24c.81-2.42-.1-2.99-.94-3.3v-.57h6.36Z"/>
        <path class="cls-1" d="M366.25,239.75h-10.66c.54,3.03,2.12,5.05,5.08,5.05,2.42,0,3.7-.94,4.61-2.56l.57.17c-.47,2.12-2.12,5.21-6.73,5.21-5.18,0-9.08-2.69-9.08-8.58,0-5.35,3.43-8.88,8.88-8.88,4.27,0,7.84,3.13,7.33,9.59ZM358.24,232.82c-2.09.2-2.86,2.22-2.86,4.68h6.02c.03-2.25-.67-4.95-3.16-4.68Z"/>
        <path class="cls-1" d="M384.95,246.71v.57h-6.73v-.98c-.87.61-2.32,1.31-4.27,1.31-2.39,0-5.95-.77-5.95-4.91,0-4.41,4.37-5.25,10.23-5.32v-.81c0-1.31.07-4.07-3.2-4.07-2.22,0-3.87,1.65-4.44,2.56h-.5v-3.57c.67-.27,3.03-1.35,6.16-1.35,4.04,0,7.17,1.14,7.17,6.43v6.29c0,3.03.4,3.67,1.55,3.83ZM378.22,244.06v-4.64h-.13c-4.44,0-5.45,1.48-5.32,3.13.13,1.65,1.31,2.42,2.93,2.42,1.01,0,1.95-.34,2.52-.91Z"/>
        <path class="cls-1" d="M394.94,246.71v.57h-8.31v-.57c1.14-.17,1.55-.81,1.55-3.83v-15.95c0-2.12-1.08-2.59-1.55-2.69v-.5l6.09-2.46h.64v21.6c0,3.03.4,3.67,1.58,3.83Z"/>
        <path class="cls-1" d="M403.86,233.02v8.14c0,2.29.2,3.6,1.99,3.6s2.36-1.58,2.56-2.46l.67.07c-.3,1.65-.84,5.25-4.68,5.25-3.36,0-5.72-1.28-5.72-6.36v-8.24h-3.06v-.34l1.01-2.19h2.05v-2.99l4.61-1.82h.57v4.81h5.28v.34l-.87,2.19h-4.41Z"/>
        <path class="cls-1" d="M429.93,246.71v.57h-8.31v-.57c1.14-.17,1.55-.81,1.55-3.83v-5.95c0-2.83-1.04-3.97-2.86-3.97-1.72,0-2.79,1.72-2.93,3.5v6.43c0,3.03.4,3.67,1.58,3.83v.57h-8.31v-.57c1.14-.17,1.55-.81,1.55-3.83v-15.95c0-2.12-1.08-2.59-1.55-2.69v-.5l6.05-2.46h.67v11.47c.81-1.28,2.29-2.59,4.81-2.59,3.13,0,6.16,1.61,6.16,6.76v5.95c0,3.03.4,3.67,1.58,3.83Z"/>
        <path class="cls-1" d="M455.29,247.29v-.57c.67-.5,1.28-1.38.17-4.27l-.5-1.31h-8.48l-.91,2.29c-.84,2.12-.1,2.86.64,3.3v.57h-6.36v-.57c1.28-.5,2.35-1.85,3.57-4.71l7.64-18.27h2.56l7.91,19.34c.77,1.92,1.48,3.23,2.62,3.63v.57h-8.85ZM454.08,238.88l-3.26-8.55-3.43,8.55h6.69Z"/>
        <path class="cls-1" d="M484.35,246.71v.57h-6.76v-1.45c-1.01,1.11-2.46,1.78-4.44,1.78-4.44,0-8.11-2.52-8.48-8.31-.34-5.18,3.26-9.15,8.41-9.15,2.22,0,3.6.97,4.51,2.46v-5.69c0-2.12-1.08-2.59-1.55-2.69v-.5l6.05-2.46h.67v21.6c0,3.03.4,3.67,1.58,3.83ZM477.39,238.17c-.44-2.96-1.58-5.79-4.51-5.48-2.99.34-3.53,3.57-3.03,6.79.47,3.23,2.02,5.95,4.74,5.65,3.03-.3,3.3-3.73,2.79-6.96Z"/>
        <path class="cls-1" d="M503.02,230.5v.57c-.67.24-1.24.37-1.95,2.19l-5.55,14.03h-2.99l-5.75-14.2c-.57-1.51-1.24-1.75-1.92-2.02v-.57h8.44v.57c-.5.27-1.35.71-.77,2.25l2.96,7.84,3.1-8.17c.34-1.18-.34-1.72-.87-1.92v-.57h5.32Z"/>
        <path class="cls-1" d="M512.17,246.71v.57h-8.31v-.57c1.14-.17,1.55-.81,1.55-3.83v-7.37c0-2.12-1.08-2.59-1.55-2.69v-.5l6.05-2.46h.67v13.02c0,3.03.4,3.67,1.58,3.83ZM505.28,225.25c0-1.51,1.01-2.76,2.72-2.76s2.76,1.24,2.76,2.76-1.01,2.73-2.76,2.73-2.72-1.21-2.72-2.73Z"/>
        <path class="cls-1" d="M527.44,242.21c0,4.27-4.44,5.42-7.37,5.42s-4.78-.81-5.89-1.72v-4.47l.57-.1c.67,1.88,2.25,3.46,4.61,3.46,1.41,0,2.52-.37,2.52-1.68,0-2.86-7.57-2.62-7.57-8.17,0-3.67,3.84-4.78,7.06-4.78,2.19,0,3.73.64,4.31.94l.37,4-.54.03c-.47-.91-1.65-2.49-3.7-2.49-1.14,0-2.49.34-2.49,1.61,0,2.62,8.11,2.29,8.11,7.94Z"/>
        <path class="cls-1" d="M548.47,238.47c0,5.21-3.53,9.15-9.82,9.15-4.98,0-9.18-2.66-9.18-8.31,0-5.21,3.53-9.15,9.82-9.15,4.98,0,9.18,2.66,9.18,8.31ZM542.95,238.34c-.5-3.4-1.95-5.95-4.95-5.65-2.76.3-3.57,3.36-3.03,6.79.5,3.43,2.05,5.95,5.01,5.65,2.99-.3,3.5-3.33,2.96-6.8Z"/>
        <path class="cls-1" d="M564.01,230.77l-1.38,5.42-.81-.17c.03-1.41-.3-3.06-2.29-3.06-1.72,0-2.39,1.55-2.49,3.2v6.73c0,3.03.4,3.67,1.58,3.83v.57h-8.31v-.57c1.14-.17,1.55-.81,1.55-3.83v-7.37c0-2.12-1.08-2.59-1.55-2.69v-.5l6.05-2.46h.67v2.62c.74-1.21,2.05-2.32,4.37-2.32,1.04,0,1.88.2,2.59.61Z"/>
        <path class="cls-1" d="M583.15,230.5v.57c-.67.24-1.24.37-1.95,2.19l-5.52,14.03c-1.92,4.71-3.87,8.98-7.91,8.98-1.08,0-1.85-.27-2.36-.54l-.74-5.11.67-.17c.34.87,1.01,2.25,2.86,2.25,1.95,0,3.43-2.66,4.54-5.42h-.1l-5.72-14.2c-.61-1.51-1.28-1.75-1.95-2.02v-.57h8.44v.57c-.5.27-1.35.71-.77,2.25l2.96,7.84,3.13-8.17c.34-1.18-.34-1.72-.91-1.92v-.57h5.32Z"/>
      </g>
      <path class="cls-1" d="M96.13,177.02l-1.64-2.37-46.68-67.65,32.09-34.46c4.98-5.22,11.06-8.14,18.23-8.75v-4.01h-27.35v4.01h.73c.36,0,.85.06,1.46.18.61.12,1.28.24,2.01.36.73.12,1.37.34,1.91.64.55.3.97.67,1.28,1.09.3.43.36.97.18,1.64-.18.67-.7,1.37-1.55,2.1L14.81,134.9v-62.72c.12-1.7.55-3.16,1.28-4.38.73-1.21,1.61-2.07,2.64-2.55,1.03-.48,2.07-.88,3.1-1.19,1.03-.3,1.88-.39,2.55-.27.67.12,1,.12,1,0v-4.01H0v127.64h25.38v-4.01h-2.55c-1.7-.12-3.44-.88-5.2-2.28-1.76-1.4-2.71-3.43-2.83-6.11v-33.55l20.97-22.25,40.66,57.25c.73.97,1,1.82.82,2.55-.18.73-.43,1.34-.73,1.82-.3.49-.88.91-1.73,1.28-.85.36-1.58.61-2.19.73-.61.12-1.31.25-2.1.36-.79.12-1.31.18-1.55.18h-.73v4.01h42.3v-4.01c-5.96.61-10.76-1.52-14.4-6.38Z"/>
      <g>
        <polygon class="cls-1" points="158.58 201.93 145.3 236.37 10.69 236.37 10.69 201.93 .38 201.93 .38 247.18 152.25 247.18 169.7 201.93 158.58 201.93"/>
        <polygon class="cls-1" points="10.69 39.31 10.69 10.81 232.27 10.81 221.28 39.31 232.4 39.31 247.56 0 .38 0 .38 39.31 10.69 39.31"/>
      </g>
    </g>
  </g>
</svg>