<?xml version="1.0" encoding="UTF-8"?>
<svg id="Layer_2" data-name="Layer 2" xmlns="http://www.w3.org/2000/svg" viewBox="0 0 291.47 291.47">
  <defs>
    <style>
      .cls-1 {
        fill: #252422;
      }
    </style>
  </defs>
  <g id="Layer_1" data-name="Layer 1">
    <g>
      <path class="cls-1" d="M148.01,208.74l-1.93-2.8-55.04-79.77,37.84-40.64c5.88-6.16,13.04-9.6,21.5-10.32v-4.73h-32.25v4.73h.86c.43,0,1,.07,1.72.22.72.14,1.51.29,2.37.43.86.14,1.61.4,2.26.75.65.36,1.15.79,1.51,1.29.36.5.43,1.15.22,1.93-.22.79-.83,1.61-1.83,2.47l-73.1,76.76v-73.96c.14-2.01.64-3.73,1.51-5.16.86-1.43,1.9-2.44,3.12-3.01,1.22-.57,2.44-1.04,3.66-1.4,1.22-.36,2.22-.46,3.01-.32.79.14,1.18.14,1.18,0v-4.73h-29.93v150.51h29.93v-4.73h-3.01c-2.01-.14-4.05-1.04-6.13-2.69-2.08-1.65-3.19-4.05-3.33-7.2v-39.56l24.73-26.23,47.95,67.51c.86,1.15,1.18,2.15.97,3.01-.22.86-.5,1.58-.86,2.15-.36.57-1.04,1.08-2.04,1.51-1,.43-1.86.72-2.58.86-.72.14-1.54.29-2.47.43-.93.14-1.54.22-1.83.22h-.86v4.73h49.88v-4.73c-7.02.72-12.69-1.79-16.99-7.53Z"/>
      <g>
        <polygon class="cls-1" points="186.55 238.12 170.89 278.73 12.15 278.73 12.15 238.12 0 238.12 0 291.47 179.09 291.47 199.66 238.12 186.55 238.12"/>
        <polygon class="cls-1" points="12.15 51.36 12.15 12.74 273.45 12.74 260.49 46.36 273.6 46.36 291.47 0 0 0 0 51.36 12.15 51.36"/>
      </g>
    </g>
  </g>
</svg>